<?xml version="1.0" encoding="UTF-8" standalone="no"?>
<svg
   xmlns:dc="http://purl.org/dc/elements/1.1/"
   xmlns:cc="http://creativecommons.org/ns#"
   xmlns:rdf="http://www.w3.org/1999/02/22-rdf-syntax-ns#"
   xmlns:svg="http://www.w3.org/2000/svg"
   xmlns="http://www.w3.org/2000/svg"
   xmlns:sodipodi="http://sodipodi.sourceforge.net/DTD/sodipodi-0.dtd"
   xmlns:inkscape="http://www.inkscape.org/namespaces/inkscape"
   inkscape:export-ydpi="576"
   inkscape:export-xdpi="576"
   inkscape:export-filename="C:\Users\RainBoyz\Desktop\DONE\Filedline [Done!]\6 - Eclipse.png"
   sodipodi:docname="Template Export.svg"
   inkscape:version="1.0 (4035a4fb49, 2020-05-01)"
   id="svg831"
   version="1.1"
   viewBox="0 0 22.577778 22.577778"
   height="64pt"
   width="64pt">
  <defs
     id="defs825">
    <pattern
       y="0"
       x="0"
       height="6"
       width="6"
       patternUnits="userSpaceOnUse"
       id="EMFhbasepattern" />
    <pattern
       y="0"
       x="0"
       height="6"
       width="6"
       patternUnits="userSpaceOnUse"
       id="EMFhbasepattern-9" />
    <pattern
       y="0"
       x="0"
       height="6"
       width="6"
       patternUnits="userSpaceOnUse"
       id="EMFhbasepattern-0" />
    <pattern
       y="0"
       x="0"
       height="6"
       width="6"
       patternUnits="userSpaceOnUse"
       id="EMFhbasepattern-7" />
    <pattern
       y="0"
       x="0"
       height="6"
       width="6"
       patternUnits="userSpaceOnUse"
       id="EMFhbasepattern-2" />
    <pattern
       y="0"
       x="0"
       height="6"
       width="6"
       patternUnits="userSpaceOnUse"
       id="EMFhbasepattern-98" />
    <pattern
       y="0"
       x="0"
       height="6"
       width="6"
       patternUnits="userSpaceOnUse"
       id="EMFhbasepattern-6" />
    <pattern
       y="0"
       x="0"
       height="6"
       width="6"
       patternUnits="userSpaceOnUse"
       id="EMFhbasepattern-01" />
    <pattern
       y="0"
       x="0"
       height="6"
       width="6"
       patternUnits="userSpaceOnUse"
       id="EMFhbasepattern-07" />
    <pattern
       y="0"
       x="0"
       height="6"
       width="6"
       patternUnits="userSpaceOnUse"
       id="EMFhbasepattern-8" />
    <pattern
       y="0"
       x="0"
       height="6"
       width="6"
       patternUnits="userSpaceOnUse"
       id="EMFhbasepattern-4" />
    <pattern
       y="0"
       x="0"
       height="6"
       width="6"
       patternUnits="userSpaceOnUse"
       id="EMFhbasepattern-40" />
    <pattern
       y="0"
       x="0"
       height="6"
       width="6"
       patternUnits="userSpaceOnUse"
       id="EMFhbasepattern-08" />
    <pattern
       y="0"
       x="0"
       height="6"
       width="6"
       patternUnits="userSpaceOnUse"
       id="EMFhbasepattern-04" />
    <pattern
       y="0"
       x="0"
       height="6"
       width="6"
       patternUnits="userSpaceOnUse"
       id="EMFhbasepattern-014" />
    <pattern
       y="0"
       x="0"
       height="6"
       width="6"
       patternUnits="userSpaceOnUse"
       id="EMFhbasepattern-27" />
    <pattern
       y="0"
       x="0"
       height="6"
       width="6"
       patternUnits="userSpaceOnUse"
       id="EMFhbasepattern-09" />
    <pattern
       y="0"
       x="0"
       height="6"
       width="6"
       patternUnits="userSpaceOnUse"
       id="EMFhbasepattern-5" />
    <pattern
       y="0"
       x="0"
       height="6"
       width="6"
       patternUnits="userSpaceOnUse"
       id="EMFhbasepattern-018" />
  </defs>
  <sodipodi:namedview
     inkscape:document-rotation="0"
     inkscape:snap-global="true"
     inkscape:snap-nodes="false"
     inkscape:bbox-nodes="true"
     inkscape:snap-bbox="true"
     showguides="true"
     inkscape:snap-midpoints="true"
     inkscape:snap-smooth-nodes="true"
     inkscape:snap-intersection-paths="true"
     inkscape:object-paths="true"
     inkscape:showpageshadow="false"
     inkscape:pagecheckerboard="true"
     inkscape:window-maximized="1"
     inkscape:window-y="-8"
     inkscape:window-x="-8"
     inkscape:window-height="715"
     inkscape:window-width="1366"
     units="pt"
     showgrid="false"
     inkscape:current-layer="g724"
     inkscape:document-units="pt"
     inkscape:cy="42.778201"
     inkscape:cx="-4.2778197"
     inkscape:zoom="4.4415145"
     inkscape:pageshadow="2"
     inkscape:pageopacity="0.0"
     borderopacity="1.0"
     bordercolor="#666666"
     pagecolor="#ffffff"
     id="base">
    <inkscape:grid
       id="grid1378"
       type="xygrid" />
    <sodipodi:guide
       inkscape:locked="false"
       id="guide1380"
       orientation="78.000048,0"
       position="0.97013831,21.607643" />
    <sodipodi:guide
       inkscape:locked="false"
       id="guide1382"
       orientation="0,78.000005"
       position="0.97013831,0.97013129" />
    <sodipodi:guide
       inkscape:locked="false"
       id="guide1384"
       orientation="-78.000048,0"
       position="21.607639,0.97013129" />
    <sodipodi:guide
       inkscape:locked="false"
       id="guide1386"
       orientation="0,-78.000005"
       position="21.607639,21.607643" />
  </sodipodi:namedview>
  <metadata
     id="metadata828">
    <rdf:RDF>
      <cc:Work
         rdf:about="">
        <dc:format>image/svg+xml</dc:format>
        <dc:type
           rdf:resource="http://purl.org/dc/dcmitype/StillImage" />
        <dc:title></dc:title>
      </cc:Work>
    </rdf:RDF>
  </metadata>
  <g
     transform="translate(0,-274.42223)"
     id="layer1"
     inkscape:groupmode="layer"
     inkscape:label="Icon">
    <g
       transform="matrix(1.2580549,0,0,1.2580549,77.385914,-38.905126)"
       style="display:inline"
       id="g724">
      <g
         transform="matrix(1.009884,0,0,1.009884,-153.50314,-2.5508554)"
         id="g1840">
        <path
           style="color:#000000;font-style:normal;font-variant:normal;font-weight:normal;font-stretch:normal;font-size:medium;line-height:normal;font-family:sans-serif;font-variant-ligatures:normal;font-variant-position:normal;font-variant-caps:normal;font-variant-numeric:normal;font-variant-alternates:normal;font-variant-east-asian:normal;font-feature-settings:normal;font-variation-settings:normal;text-indent:0;text-align:start;text-decoration:none;text-decoration-line:none;text-decoration-style:solid;text-decoration-color:#000000;letter-spacing:normal;word-spacing:normal;text-transform:none;writing-mode:lr-tb;direction:ltr;text-orientation:mixed;dominant-baseline:auto;baseline-shift:baseline;text-anchor:start;white-space:normal;shape-padding:0;shape-margin:0;inline-size:0;clip-rule:nonzero;display:inline;overflow:visible;visibility:visible;isolation:auto;mix-blend-mode:normal;color-interpolation:sRGB;color-interpolation-filters:linearRGB;solid-color:#000000;solid-opacity:1;vector-effect:none;fill:#aabfd0;fill-opacity:1;fill-rule:nonzero;stroke:none;stroke-width:0.529166;stroke-linecap:round;stroke-linejoin:round;stroke-miterlimit:4;stroke-dasharray:none;stroke-dashoffset:0;stroke-opacity:1;color-rendering:auto;image-rendering:auto;shape-rendering:auto;text-rendering:auto;enable-background:accumulate;stop-color:#000000"
           d="m 102.99023,254.16211 c -0.20455,0.009 -0.32221,0.23635 -0.21093,0.4082 0.49365,0.7492 0.78125,1.64559 0.78125,2.61133 0,2.62294 -2.12121,4.74414 -4.744144,4.74414 -0.738987,0 -1.436761,-0.16809 -2.060547,-0.46875 -0.240981,-0.11496 -0.48122,0.1588 -0.335937,0.38281 0.942799,1.42635 2.564135,2.36719 4.400388,2.36719 2.90891,0 5.27344,-2.36256 5.27344,-5.27148 0,-2.03558 -1.3749,-3.34464 -2.87305,-4.6543 -0.0361,-0.0316 -0.0622,-0.0728 -0.10547,-0.0937 -0.039,-0.0185 -0.0819,-0.0272 -0.125,-0.0254 z"
           id="path1778"
           sodipodi:nodetypes="ccssccsssccc" />
        <path
           style="color:#000000;font-style:normal;font-variant:normal;font-weight:normal;font-stretch:normal;font-size:medium;line-height:normal;font-family:sans-serif;font-variant-ligatures:normal;font-variant-position:normal;font-variant-caps:normal;font-variant-numeric:normal;font-variant-alternates:normal;font-variant-east-asian:normal;font-feature-settings:normal;font-variation-settings:normal;text-indent:0;text-align:start;text-decoration:none;text-decoration-line:none;text-decoration-style:solid;text-decoration-color:#000000;letter-spacing:normal;word-spacing:normal;text-transform:none;writing-mode:lr-tb;direction:ltr;text-orientation:mixed;dominant-baseline:auto;baseline-shift:baseline;text-anchor:start;white-space:normal;shape-padding:0;shape-margin:0;inline-size:0;clip-rule:nonzero;display:inline;overflow:visible;visibility:visible;isolation:auto;mix-blend-mode:normal;color-interpolation:sRGB;color-interpolation-filters:linearRGB;solid-color:#000000;solid-opacity:1;vector-effect:none;fill:#5b6571;fill-opacity:1;fill-rule:nonzero;stroke:none;stroke-width:0.529167;stroke-linecap:round;stroke-linejoin:round;stroke-miterlimit:4;stroke-dasharray:none;stroke-dashoffset:0;stroke-opacity:1;color-rendering:auto;image-rendering:auto;shape-rendering:auto;text-rendering:auto;enable-background:accumulate;stop-color:#000000"
           d="m 102.1582,260.14453 a 0.26460996,0.26460996 0 0 0 -0.16797,0.0684 l -0.9082,0.82031 a 0.26460996,0.26460996 0 0 0 -0.0606,0.31055 l 0.11719,0.24414 c 0.15525,0.36335 0.51649,0.61719 0.9336,0.61719 0.55787,0 1.01562,-0.45774 1.01562,-1.01563 0,-0.34257 -0.1715,-0.65042 -0.43359,-0.83398 a 0.26460996,0.26460996 0 0 0 -0.0352,-0.0195 l -0.33398,-0.16602 a 0.26460996,0.26460996 0 0 0 -0.12696,-0.0254 z"
           id="path1793" />
        <path
           style="color:#000000;font-style:normal;font-variant:normal;font-weight:normal;font-stretch:normal;font-size:medium;line-height:normal;font-family:sans-serif;font-variant-ligatures:normal;font-variant-position:normal;font-variant-caps:normal;font-variant-numeric:normal;font-variant-alternates:normal;font-variant-east-asian:normal;font-feature-settings:normal;font-variation-settings:normal;text-indent:0;text-align:start;text-decoration:none;text-decoration-line:none;text-decoration-style:solid;text-decoration-color:#000000;letter-spacing:normal;word-spacing:normal;text-transform:none;writing-mode:lr-tb;direction:ltr;text-orientation:mixed;dominant-baseline:auto;baseline-shift:baseline;text-anchor:start;white-space:normal;shape-padding:0;shape-margin:0;inline-size:0;clip-rule:nonzero;display:inline;overflow:visible;visibility:visible;isolation:auto;mix-blend-mode:normal;color-interpolation:sRGB;color-interpolation-filters:linearRGB;solid-color:#000000;solid-opacity:1;vector-effect:none;fill:#febe40;fill-opacity:1;fill-rule:nonzero;stroke:none;stroke-width:0.529166;stroke-linecap:round;stroke-linejoin:round;stroke-miterlimit:4;stroke-dasharray:none;stroke-dashoffset:0;stroke-opacity:1;color-rendering:auto;image-rendering:auto;shape-rendering:auto;text-rendering:auto;enable-background:accumulate;stop-color:#000000"
           d="m 100.82031,253.66211 c -2.908922,0 -5.084156,2.36452 -5.084156,5.27344 -10e-7,1.0737 0.346691,2.07377 0.685721,2.90625 0.02629,0.0395 0.06272,0.0712 0.105469,0.0918 0.692861,0.33288 1.502963,0.1367 2.322522,0.1367 2.908914,0 5.081034,-1.9881 5.081034,-4.89702 0,-1.07104 -0.46327,-2.01126 -0.7102,-2.89397 -0.0263,-0.0395 -0.0627,-0.0712 -0.10547,-0.0918 -0.69388,-0.3365 -1.47292,-0.52539 -2.29492,-0.52539 z"
           id="path1761"
           sodipodi:nodetypes="ssccssccss" />
        <path
           id="path1805"
           style="color:#000000;font-style:normal;font-variant:normal;font-weight:normal;font-stretch:normal;font-size:medium;line-height:normal;font-family:sans-serif;font-variant-ligatures:normal;font-variant-position:normal;font-variant-caps:normal;font-variant-numeric:normal;font-variant-alternates:normal;font-variant-east-asian:normal;font-feature-settings:normal;font-variation-settings:normal;text-indent:0;text-align:start;text-decoration:none;text-decoration-line:none;text-decoration-style:solid;text-decoration-color:#000000;letter-spacing:normal;word-spacing:normal;text-transform:none;writing-mode:lr-tb;direction:ltr;text-orientation:mixed;dominant-baseline:auto;baseline-shift:baseline;text-anchor:start;white-space:normal;shape-padding:0;shape-margin:0;inline-size:0;clip-rule:nonzero;display:inline;overflow:visible;visibility:visible;opacity:1;isolation:auto;mix-blend-mode:normal;color-interpolation:sRGB;color-interpolation-filters:linearRGB;solid-color:#000000;solid-opacity:1;vector-effect:none;fill:#5b6571;fill-opacity:1;fill-rule:nonzero;stroke:none;stroke-width:2;stroke-linecap:round;stroke-linejoin:round;stroke-miterlimit:4;stroke-dasharray:none;stroke-dashoffset:0;stroke-opacity:1;color-rendering:auto;image-rendering:auto;shape-rendering:auto;text-rendering:auto;enable-background:accumulate;stop-color:#000000;stop-opacity:1"
           d="m 399.23041,-87.272373 -0.51166,-0.212002 c -0.005,0.0026 -0.0104,0.0052 -0.0156,0.0078 -1.96259,0.167433 -3.50585,1.826398 -3.50585,3.824218 0,2.108561 1.72936,3.837891 3.83789,3.837891 0.42293,0 0.83425,-0.07071 1.21875,-0.199219 l 0.0215,-0.0059 0.69531,-0.21875 c -0.049,-2.591724 -0.77659,-4.788958 -1.74029,-7.034092 z"
           transform="matrix(0.26458334,0,0,0.26458334,0,280.06666)"
           sodipodi:nodetypes="cccsscccc" />
        <path
           id="path1813"
           style="color:#000000;font-style:normal;font-variant:normal;font-weight:normal;font-stretch:normal;font-size:medium;line-height:normal;font-family:sans-serif;font-variant-ligatures:normal;font-variant-position:normal;font-variant-caps:normal;font-variant-numeric:normal;font-variant-alternates:normal;font-variant-east-asian:normal;font-feature-settings:normal;font-variation-settings:normal;text-indent:0;text-align:start;text-decoration:none;text-decoration-line:none;text-decoration-style:solid;text-decoration-color:#000000;letter-spacing:normal;word-spacing:normal;text-transform:none;writing-mode:lr-tb;direction:ltr;text-orientation:mixed;dominant-baseline:auto;baseline-shift:baseline;text-anchor:start;white-space:normal;shape-padding:0;shape-margin:0;inline-size:0;clip-rule:nonzero;display:inline;overflow:visible;visibility:visible;opacity:1;isolation:auto;mix-blend-mode:normal;color-interpolation:sRGB;color-interpolation-filters:linearRGB;solid-color:#000000;solid-opacity:1;vector-effect:none;fill:#5b6571;fill-opacity:1;fill-rule:nonzero;stroke:none;stroke-width:2;stroke-linecap:round;stroke-linejoin:round;stroke-miterlimit:4;stroke-dasharray:none;stroke-dashoffset:0;stroke-opacity:1;color-rendering:auto;image-rendering:auto;shape-rendering:auto;text-rendering:auto;enable-background:accumulate;stop-color:#000000;stop-opacity:1"
           d="m 386.73047,-65.722656 c -1.58585,0 -2.89453,1.300867 -2.89453,2.886718 0,0.827112 0.35366,1.592502 0.91601,2.119141 l 0.30664,0.371094 c 1.55747,-0.318435 3.03671,-0.838909 4.43946,-1.498047 l 0.082,-0.482422 v -0.0078 c 0.0265,-0.154583 0.043,-0.3239 0.043,-0.501954 0,-1.585851 -1.30677,-2.886718 -2.89258,-2.886718 z"
           transform="matrix(0.26458334,0,0,0.26458334,0,280.06666)" />
        <path
           transform="matrix(0.26458334,0,0,0.26458334,0,280.06666)"
           d="m 381.05273,-96.009766 c -2.59309,0 -5.03075,0.687489 -7.13085,1.896485 a 0.99999869,0.99999869 0 0 0 -0.36915,1.367187 0.99999869,0.99999869 0 0 0 1.36524,0.369141 c 1.80641,-1.039899 3.89668,-1.632813 6.13476,-1.632813 1.92556,0 3.73879,0.441517 5.35938,1.226563 a 0.99999869,0.99999869 0 0 0 1.33594,-0.464844 0.99999869,0.99999869 0 0 0 -0.46485,-1.337891 c -1.885,-0.913133 -3.99949,-1.423828 -6.23047,-1.423828 z m -10.64453,4.5625 a 0.99999869,0.99999869 0 0 0 -0.67968,0.28711 c -1.20601,1.206009 -2.18036,2.642149 -2.85547,4.238281 a 0.99999869,0.99999869 0 0 0 0.53125,1.3125 0.99999869,0.99999869 0 0 0 1.31445,-0.53125 c 0.57327,-1.355376 1.40153,-2.575345 2.42773,-3.601563 a 0.99999869,0.99999869 0 0 0 0,-1.417968 0.99999869,0.99999869 0 0 0 -0.73828,-0.28711 z"
           style="color:#000000;font-style:normal;font-variant:normal;font-weight:normal;font-stretch:normal;font-size:medium;line-height:normal;font-family:sans-serif;font-variant-ligatures:normal;font-variant-position:normal;font-variant-caps:normal;font-variant-numeric:normal;font-variant-alternates:normal;font-variant-east-asian:normal;font-feature-settings:normal;font-variation-settings:normal;text-indent:0;text-align:start;text-decoration:none;text-decoration-line:none;text-decoration-style:solid;text-decoration-color:#000000;letter-spacing:normal;word-spacing:normal;text-transform:none;writing-mode:lr-tb;direction:ltr;text-orientation:mixed;dominant-baseline:auto;baseline-shift:baseline;text-anchor:start;white-space:normal;shape-padding:0;shape-margin:0;inline-size:0;clip-rule:nonzero;display:inline;overflow:visible;visibility:visible;opacity:1;isolation:auto;mix-blend-mode:normal;color-interpolation:sRGB;color-interpolation-filters:linearRGB;solid-color:#000000;solid-opacity:1;vector-effect:none;fill:#ed7425;fill-opacity:1;fill-rule:nonzero;stroke:none;stroke-width:2;stroke-linecap:round;stroke-linejoin:round;stroke-miterlimit:4;stroke-dasharray:none;stroke-dashoffset:0;stroke-opacity:1;color-rendering:auto;image-rendering:auto;shape-rendering:auto;text-rendering:auto;enable-background:accumulate;stop-color:#000000;stop-opacity:1"
           id="path1622" />
        <path
           id="path1834"
           style="color:#000000;font-style:normal;font-variant:normal;font-weight:normal;font-stretch:normal;font-size:medium;line-height:normal;font-family:sans-serif;font-variant-ligatures:normal;font-variant-position:normal;font-variant-caps:normal;font-variant-numeric:normal;font-variant-alternates:normal;font-variant-east-asian:normal;font-feature-settings:normal;font-variation-settings:normal;text-indent:0;text-align:start;text-decoration:none;text-decoration-line:none;text-decoration-style:solid;text-decoration-color:#000000;letter-spacing:normal;word-spacing:normal;text-transform:none;writing-mode:lr-tb;direction:ltr;text-orientation:mixed;dominant-baseline:auto;baseline-shift:baseline;text-anchor:start;white-space:normal;shape-padding:0;shape-margin:0;inline-size:0;clip-rule:nonzero;display:inline;overflow:visible;visibility:visible;opacity:1;isolation:auto;mix-blend-mode:normal;color-interpolation:sRGB;color-interpolation-filters:linearRGB;solid-color:#000000;solid-opacity:1;vector-effect:none;fill:#fef79c;fill-opacity:1;fill-rule:nonzero;stroke:none;stroke-width:2;stroke-linecap:round;stroke-linejoin:round;stroke-miterlimit:4;stroke-dasharray:none;stroke-dashoffset:0;stroke-opacity:1;color-rendering:auto;image-rendering:auto;shape-rendering:auto;text-rendering:auto;enable-background:accumulate;stop-color:#000000;stop-opacity:1"
           d="m 405.57031,-75.763672 a 1.0000006,1.0000006 0 0 0 -0.0762,0.002 1.0000006,1.0000006 0 0 0 -0.0176,0.002 1.0000006,1.0000006 0 0 0 -0.18164,0.02734 1.0000006,1.0000006 0 0 0 -0.71289,0.75586 l -0.30859,1.142578 h -0.71289 a 1.0000006,1.0000006 0 0 0 -1.00391,1.003906 1.0000006,1.0000006 0 0 0 1.00391,0.996094 h 0.17383 l -0.18165,0.671875 a 1.0000006,1.0000006 0 0 0 0.70899,1.224609 1.0000006,1.0000006 0 0 0 1.22461,-0.701172 l 0.0703,-0.263672 0.0703,0.263672 a 1.0000006,1.0000006 0 0 0 1.22657,0.701172 1.0000006,1.0000006 0 0 0 0.70703,-1.224609 l -0.18164,-0.671875 h 0.17578 a 1.0000006,1.0000006 0 0 0 1.0039,-0.996094 1.0000006,1.0000006 0 0 0 -1.0039,-1.003906 h -0.71289 l -0.31446,-1.171875 a 1.0000006,1.0000006 0 0 0 -0.70703,-0.726563 1.0000006,1.0000006 0 0 0 -0.25,-0.03125 z"
           transform="matrix(0.26458334,0,0,0.26458334,0,280.06666)" />
        <path
           id="path1328"
           d="m 104.39411,260.53274 a 0.2645835,0.2645835 0 0 0 -0.26563,0.26367 0.2645835,0.2645835 0 0 0 0.26563,0.26563 0.2645835,0.2645835 0 0 0 0.26367,-0.26563 0.2645835,0.2645835 0 0 0 -0.26367,-0.26367 z"
           style="color:#000000;font-style:normal;font-variant:normal;font-weight:normal;font-stretch:normal;font-size:medium;line-height:normal;font-family:sans-serif;font-variant-ligatures:normal;font-variant-position:normal;font-variant-caps:normal;font-variant-numeric:normal;font-variant-alternates:normal;font-variant-east-asian:normal;font-feature-settings:normal;font-variation-settings:normal;text-indent:0;text-align:start;text-decoration:none;text-decoration-line:none;text-decoration-style:solid;text-decoration-color:#000000;letter-spacing:normal;word-spacing:normal;text-transform:none;writing-mode:lr-tb;direction:ltr;text-orientation:mixed;dominant-baseline:auto;baseline-shift:baseline;text-anchor:start;white-space:normal;shape-padding:0;shape-margin:0;inline-size:0;clip-rule:nonzero;display:inline;overflow:visible;visibility:visible;isolation:auto;mix-blend-mode:normal;color-interpolation:sRGB;color-interpolation-filters:linearRGB;solid-color:#000000;solid-opacity:1;vector-effect:none;fill:#5b6571;fill-opacity:1;fill-rule:nonzero;stroke:none;stroke-width:0.529167;stroke-linecap:round;stroke-linejoin:round;stroke-miterlimit:4;stroke-dasharray:none;stroke-dashoffset:0;stroke-opacity:1;color-rendering:auto;image-rendering:auto;shape-rendering:auto;text-rendering:auto;enable-background:accumulate;stop-color:#000000" />
        <path
           id="path1821"
           style="color:#000000;font-style:normal;font-variant:normal;font-weight:normal;font-stretch:normal;font-size:medium;line-height:normal;font-family:sans-serif;font-variant-ligatures:normal;font-variant-position:normal;font-variant-caps:normal;font-variant-numeric:normal;font-variant-alternates:normal;font-variant-east-asian:normal;font-feature-settings:normal;font-variation-settings:normal;text-indent:0;text-align:start;text-decoration:none;text-decoration-line:none;text-decoration-style:solid;text-decoration-color:#000000;letter-spacing:normal;word-spacing:normal;text-transform:none;writing-mode:lr-tb;direction:ltr;text-orientation:mixed;dominant-baseline:auto;baseline-shift:baseline;text-anchor:start;white-space:normal;shape-padding:0;shape-margin:0;inline-size:0;clip-rule:nonzero;display:inline;overflow:visible;visibility:visible;opacity:1;isolation:auto;mix-blend-mode:normal;color-interpolation:sRGB;color-interpolation-filters:linearRGB;solid-color:#000000;solid-opacity:1;vector-effect:none;fill:#fef79c;fill-opacity:1;fill-rule:nonzero;stroke:none;stroke-width:2;stroke-linecap:round;stroke-linejoin:round;stroke-miterlimit:4;stroke-dasharray:none;stroke-dashoffset:0;stroke-opacity:1;color-rendering:auto;image-rendering:auto;shape-rendering:auto;text-rendering:auto;enable-background:accumulate;stop-color:#000000;stop-opacity:1"
           d="m 396.52539,-59.699219 a 1.0000006,1.0000006 0 0 0 -0.26562,0.03711 1.0000006,1.0000006 0 0 0 -0.71289,0.755859 l -0.3086,1.142578 h -0.71289 a 1.0000006,1.0000006 0 0 0 -1.00391,0.996094 1.0000006,1.0000006 0 0 0 1.00391,1.003906 h 0.17383 l -0.18164,0.671875 a 1.0000006,1.0000006 0 0 0 0.70898,1.224609 1.0000006,1.0000006 0 0 0 1.22461,-0.708984 l 0.0703,-0.261719 0.0703,0.261719 a 1.0000006,1.0000006 0 0 0 1.22656,0.708984 1.0000006,1.0000006 0 0 0 0.70703,-1.224609 l -0.18164,-0.671875 h 0.17578 a 1.0000006,1.0000006 0 0 0 1.00391,-1.003906 1.0000006,1.0000006 0 0 0 -1.00391,-0.996094 h -0.71484 l -0.31446,-1.171875 a 1.0000006,1.0000006 0 0 0 -0.006,-0.01758 1.0000006,1.0000006 0 0 0 -0.0215,-0.07031 1.0000006,1.0000006 0 0 0 -0.002,-0.0098 1.0000006,1.0000006 0 0 0 -0.0274,-0.07031 1.0000006,1.0000006 0 0 0 -0.004,-0.0078 1.0000006,1.0000006 0 0 0 -0.01,-0.01953 1.0000006,1.0000006 0 0 0 -0.0293,-0.05469 1.0000006,1.0000006 0 0 0 -0.0351,-0.06055 1.0000006,1.0000006 0 0 0 -0.008,-0.01172 1.0000006,1.0000006 0 0 0 -0.0391,-0.05469 1.0000006,1.0000006 0 0 0 -0.0117,-0.01367 1.0000006,1.0000006 0 0 0 -0.043,-0.04883 1.0000006,1.0000006 0 0 0 -0.0117,-0.01367 1.0000006,1.0000006 0 0 0 -0.11133,-0.09961 1.0000006,1.0000006 0 0 0 -0.0156,-0.01172 1.0000006,1.0000006 0 0 0 -0.0527,-0.03711 1.0000006,1.0000006 0 0 0 -0.0156,-0.0098 1.0000006,1.0000006 0 0 0 -0.0117,-0.0059 1.0000006,1.0000006 0 0 0 -0.0625,-0.03516 1.0000006,1.0000006 0 0 0 -0.0586,-0.02734 1.0000006,1.0000006 0 0 0 -0.0176,-0.0078 1.0000006,1.0000006 0 0 0 -0.0605,-0.02344 1.0000006,1.0000006 0 0 0 -0.0176,-0.0059 1.0000006,1.0000006 0 0 0 -0.0352,-0.0098 1.0000006,1.0000006 0 0 0 -0.0117,-0.002 1.0000006,1.0000006 0 0 0 -0.24609,-0.03516 z"
           transform="matrix(0.26458334,0,0,0.26458334,0,280.06666)" />
        <path
           style="color:#000000;font-style:normal;font-variant:normal;font-weight:normal;font-stretch:normal;font-size:medium;line-height:normal;font-family:sans-serif;font-variant-ligatures:normal;font-variant-position:normal;font-variant-caps:normal;font-variant-numeric:normal;font-variant-alternates:normal;font-variant-east-asian:normal;font-feature-settings:normal;font-variation-settings:normal;text-indent:0;text-align:start;text-decoration:none;text-decoration-line:none;text-decoration-style:solid;text-decoration-color:#000000;letter-spacing:normal;word-spacing:normal;text-transform:none;writing-mode:lr-tb;direction:ltr;text-orientation:mixed;dominant-baseline:auto;baseline-shift:baseline;text-anchor:start;white-space:normal;shape-padding:0;shape-margin:0;inline-size:0;clip-rule:nonzero;display:inline;overflow:visible;visibility:visible;isolation:auto;mix-blend-mode:normal;color-interpolation:sRGB;color-interpolation-filters:linearRGB;solid-color:#000000;solid-opacity:1;vector-effect:none;fill:#5b6571;fill-opacity:1;fill-rule:nonzero;stroke:none;stroke-width:0.529167;stroke-linecap:round;stroke-linejoin:round;stroke-miterlimit:4;stroke-dasharray:none;stroke-dashoffset:0;stroke-opacity:1;color-rendering:auto;image-rendering:auto;shape-rendering:auto;text-rendering:auto;enable-background:accumulate;stop-color:#000000"
           d="m 106.5109,263.17857 a 0.2645835,0.2645835 0 0 0 -0.26562,0.26367 0.2645835,0.2645835 0 0 0 0.26562,0.26563 0.2645835,0.2645835 0 0 0 0.26368,-0.26563 0.2645835,0.2645835 0 0 0 -0.26368,-0.26367 z"
           id="path1410" />
        <path
           id="path1412"
           d="m 99.89528,264.76516 a 0.2645835,0.2645835 0 0 0 -0.265625,0.26367 0.2645835,0.2645835 0 0 0 0.265625,0.26563 0.2645835,0.2645835 0 0 0 0.26367,-0.26563 0.2645835,0.2645835 0 0 0 -0.26367,-0.26367 z"
           style="color:#000000;font-style:normal;font-variant:normal;font-weight:normal;font-stretch:normal;font-size:medium;line-height:normal;font-family:sans-serif;font-variant-ligatures:normal;font-variant-position:normal;font-variant-caps:normal;font-variant-numeric:normal;font-variant-alternates:normal;font-variant-east-asian:normal;font-feature-settings:normal;font-variation-settings:normal;text-indent:0;text-align:start;text-decoration:none;text-decoration-line:none;text-decoration-style:solid;text-decoration-color:#000000;letter-spacing:normal;word-spacing:normal;text-transform:none;writing-mode:lr-tb;direction:ltr;text-orientation:mixed;dominant-baseline:auto;baseline-shift:baseline;text-anchor:start;white-space:normal;shape-padding:0;shape-margin:0;inline-size:0;clip-rule:nonzero;display:inline;overflow:visible;visibility:visible;isolation:auto;mix-blend-mode:normal;color-interpolation:sRGB;color-interpolation-filters:linearRGB;solid-color:#000000;solid-opacity:1;vector-effect:none;fill:#5b6571;fill-opacity:1;fill-rule:nonzero;stroke:none;stroke-width:0.529167;stroke-linecap:round;stroke-linejoin:round;stroke-miterlimit:4;stroke-dasharray:none;stroke-dashoffset:0;stroke-opacity:1;color-rendering:auto;image-rendering:auto;shape-rendering:auto;text-rendering:auto;enable-background:accumulate;stop-color:#000000" />
        <path
           style="color:#000000;font-style:normal;font-variant:normal;font-weight:normal;font-stretch:normal;font-size:medium;line-height:normal;font-family:sans-serif;font-variant-ligatures:normal;font-variant-position:normal;font-variant-caps:normal;font-variant-numeric:normal;font-variant-alternates:normal;font-variant-east-asian:normal;font-feature-settings:normal;font-variation-settings:normal;text-indent:0;text-align:start;text-decoration:none;text-decoration-line:none;text-decoration-style:solid;text-decoration-color:#000000;letter-spacing:normal;word-spacing:normal;text-transform:none;writing-mode:lr-tb;direction:ltr;text-orientation:mixed;dominant-baseline:auto;baseline-shift:baseline;text-anchor:start;white-space:normal;shape-padding:0;shape-margin:0;inline-size:0;clip-rule:nonzero;display:inline;overflow:visible;visibility:visible;isolation:auto;mix-blend-mode:normal;color-interpolation:sRGB;color-interpolation-filters:linearRGB;solid-color:#000000;solid-opacity:1;vector-effect:none;fill:#5b6571;fill-opacity:1;fill-rule:nonzero;stroke:none;stroke-width:0.529167;stroke-linecap:round;stroke-linejoin:round;stroke-miterlimit:4;stroke-dasharray:none;stroke-dashoffset:0;stroke-opacity:1;color-rendering:auto;image-rendering:auto;shape-rendering:auto;text-rendering:auto;enable-background:accumulate;stop-color:#000000"
           d="m 100.42445,262.64849 a 0.2645835,0.2645835 0 0 0 -0.26563,0.26367 0.2645835,0.2645835 0 0 0 0.26563,0.26563 0.2645835,0.2645835 0 0 0 0.26367,-0.26563 0.2645835,0.2645835 0 0 0 -0.26367,-0.26367 z"
           id="path1414" />
        <path
           id="path1416"
           d="m 106.77445,255.76932 a 0.2645835,0.2645835 0 0 0 -0.26563,0.26367 0.2645835,0.2645835 0 0 0 0.26563,0.26563 0.2645835,0.2645835 0 0 0 0.26367,-0.26563 0.2645835,0.2645835 0 0 0 -0.26367,-0.26367 z"
           style="color:#000000;font-style:normal;font-variant:normal;font-weight:normal;font-stretch:normal;font-size:medium;line-height:normal;font-family:sans-serif;font-variant-ligatures:normal;font-variant-position:normal;font-variant-caps:normal;font-variant-numeric:normal;font-variant-alternates:normal;font-variant-east-asian:normal;font-feature-settings:normal;font-variation-settings:normal;text-indent:0;text-align:start;text-decoration:none;text-decoration-line:none;text-decoration-style:solid;text-decoration-color:#000000;letter-spacing:normal;word-spacing:normal;text-transform:none;writing-mode:lr-tb;direction:ltr;text-orientation:mixed;dominant-baseline:auto;baseline-shift:baseline;text-anchor:start;white-space:normal;shape-padding:0;shape-margin:0;inline-size:0;clip-rule:nonzero;display:inline;overflow:visible;visibility:visible;isolation:auto;mix-blend-mode:normal;color-interpolation:sRGB;color-interpolation-filters:linearRGB;solid-color:#000000;solid-opacity:1;vector-effect:none;fill:#5b6571;fill-opacity:1;fill-rule:nonzero;stroke:none;stroke-width:0.529167;stroke-linecap:round;stroke-linejoin:round;stroke-miterlimit:4;stroke-dasharray:none;stroke-dashoffset:0;stroke-opacity:1;color-rendering:auto;image-rendering:auto;shape-rendering:auto;text-rendering:auto;enable-background:accumulate;stop-color:#000000" />
        <path
           d="m 105.1772,258.40639 c 0,2.90892 -2.36477,5.27095 -5.27369,5.27096 -0.77259,0 -1.50596,-0.16779 -2.16793,-0.46699 0.86779,0.62683 1.93383,0.99615 3.08448,0.99616 2.90892,-1e-5 5.27368,-2.36204 5.27369,-5.27097 -1e-5,-2.03557 -1.54685,-3.51042 -2.87346,-4.65446 -0.0425,-0.0222 -0.0621,-0.0727 -0.10529,-0.0936 l -10e-6,-6e-5 c -0.0389,-0.0186 -0.0818,-0.0274 0.55107,0.45084 0.63285,0.47821 1.51114,2.01293 1.51114,3.76812 z"
           style="color:#000000;font-style:normal;font-variant:normal;font-weight:normal;font-stretch:normal;font-size:medium;line-height:normal;font-family:sans-serif;font-variant-ligatures:normal;font-variant-position:normal;font-variant-caps:normal;font-variant-numeric:normal;font-variant-alternates:normal;font-variant-east-asian:normal;font-feature-settings:normal;font-variation-settings:normal;text-indent:0;text-align:start;text-decoration:none;text-decoration-line:none;text-decoration-style:solid;text-decoration-color:#000000;letter-spacing:normal;word-spacing:normal;text-transform:none;writing-mode:lr-tb;direction:ltr;text-orientation:mixed;dominant-baseline:auto;baseline-shift:baseline;text-anchor:start;white-space:normal;shape-padding:0;shape-margin:0;inline-size:0;clip-rule:nonzero;display:inline;overflow:visible;visibility:visible;isolation:auto;mix-blend-mode:normal;color-interpolation:sRGB;color-interpolation-filters:linearRGB;solid-color:#000000;solid-opacity:1;vector-effect:none;fill:#7d8e9e;fill-opacity:1;fill-rule:nonzero;stroke:none;stroke-width:0.529167;stroke-linecap:round;stroke-linejoin:round;stroke-miterlimit:4;stroke-dasharray:none;stroke-dashoffset:0;stroke-opacity:1;color-rendering:auto;image-rendering:auto;shape-rendering:auto;text-rendering:auto;enable-background:accumulate;stop-color:#000000"
           id="path668"
           sodipodi:nodetypes="ssccsccccs" />
        <path
           d="m 102.76944,262.82585 c -0.37334,0.24257 -0.77891,0.43869 -1.20923,0.58136 -5.3e-4,0.0115 -0.004,0.0224 -0.004,0.0341 0,0.21884 0.0936,0.42135 0.24236,0.56069 l 0.0806,0.0977 c 0.14472,-0.0296 0.28617,-0.0684 0.42633,-0.10956 0.051,-0.0154 0.10212,-0.0301 0.15244,-0.047 0.0658,-0.0215 0.12969,-0.0468 0.19431,-0.0708 0.13573,-0.0515 0.2698,-0.10658 0.40049,-0.16795 4.9e-4,-2.3e-4 0.001,-2.9e-4 0.002,-5.2e-4 l 0.0217,-0.12764 v -0.002 c 0.007,-0.0409 0.0114,-0.0857 0.0114,-0.13281 0,-0.2527 -0.12691,-0.47618 -0.31832,-0.61547 z"
           style="color:#000000;font-style:normal;font-variant:normal;font-weight:normal;font-stretch:normal;font-size:medium;line-height:normal;font-family:sans-serif;font-variant-ligatures:normal;font-variant-position:normal;font-variant-caps:normal;font-variant-numeric:normal;font-variant-alternates:normal;font-variant-east-asian:normal;font-feature-settings:normal;font-variation-settings:normal;text-indent:0;text-align:start;text-decoration:none;text-decoration-line:none;text-decoration-style:solid;text-decoration-color:#000000;letter-spacing:normal;word-spacing:normal;text-transform:none;writing-mode:lr-tb;direction:ltr;text-orientation:mixed;dominant-baseline:auto;baseline-shift:baseline;text-anchor:start;white-space:normal;shape-padding:0;shape-margin:0;inline-size:0;clip-rule:nonzero;display:inline;overflow:visible;visibility:visible;isolation:auto;mix-blend-mode:normal;color-interpolation:sRGB;color-interpolation-filters:linearRGB;solid-color:#000000;solid-opacity:1;vector-effect:none;fill:#3a4d5c;fill-opacity:1;fill-rule:nonzero;stroke:none;stroke-width:0.529167;stroke-linecap:round;stroke-linejoin:round;stroke-miterlimit:4;stroke-dasharray:none;stroke-dashoffset:0;stroke-opacity:1;color-rendering:auto;image-rendering:auto;shape-rendering:auto;text-rendering:auto;enable-background:accumulate;stop-color:#000000"
           id="path675" />
        <path
           transform="matrix(0.26458334,0,0,0.26458334,0,280.06666)"
           d="m 395.49609,-73.171875 c -0.21786,0.446771 -0.44771,0.885153 -0.69726,1.3125 a 1.0000006,1.0000006 0 0 0 0.75781,-0.972656 1.0000006,1.0000006 0 0 0 -0.0606,-0.339844 z"
           style="color:#000000;font-style:normal;font-variant:normal;font-weight:normal;font-stretch:normal;font-size:medium;line-height:normal;font-family:sans-serif;font-variant-ligatures:normal;font-variant-position:normal;font-variant-caps:normal;font-variant-numeric:normal;font-variant-alternates:normal;font-variant-east-asian:normal;font-feature-settings:normal;font-variation-settings:normal;text-indent:0;text-align:start;text-decoration:none;text-decoration-line:none;text-decoration-style:solid;text-decoration-color:#000000;letter-spacing:normal;word-spacing:normal;text-transform:none;writing-mode:lr-tb;direction:ltr;text-orientation:mixed;dominant-baseline:auto;baseline-shift:baseline;text-anchor:start;white-space:normal;shape-padding:0;shape-margin:0;inline-size:0;clip-rule:nonzero;display:inline;overflow:visible;visibility:visible;isolation:auto;mix-blend-mode:normal;color-interpolation:sRGB;color-interpolation-filters:linearRGB;solid-color:#000000;solid-opacity:1;vector-effect:none;fill:#3a4d5c;fill-opacity:1;fill-rule:nonzero;stroke:none;stroke-width:2;stroke-linecap:round;stroke-linejoin:round;stroke-miterlimit:4;stroke-dasharray:none;stroke-dashoffset:0;stroke-opacity:1;color-rendering:auto;image-rendering:auto;shape-rendering:auto;text-rendering:auto;enable-background:accumulate;stop-color:#000000"
           id="path680" />
        <path
           transform="matrix(0.26458334,0,0,0.26458334,0,280.06666)"
           d="m 398.37389,-87.451715 c -0.34485,0.03266 -0.96342,0.274552 -1.49303,0.637262 0.41492,1.578651 0.63867,3.235848 0.63867,4.949219 0,0.570423 -0.029,1.133069 -0.0762,1.691406 0.48724,0.225333 1.0228,0.359375 1.5918,0.359375 0.42293,0 0.83425,-0.07071 1.21875,-0.199219 l 0.0215,-0.0059 0.69531,-0.21875 c -10e-6,-6.57e-4 2e-5,-0.0013 0,-0.002 -0.012,-0.630093 -0.0567,-1.252085 -0.12695,-1.865235 -0.003,-0.02864 -0.006,-0.05734 -0.01,-0.08594 -0.14774,-1.240433 -0.4097,-2.443293 -0.77929,-3.59961 -0.002,-0.0065 -0.004,-0.01306 -0.006,-0.01953 -0.004,-0.01123 -0.008,-0.02198 -0.0117,-0.0332 -0.18408,-0.570243 -0.59849,-1.082142 -0.7184,-1.362086 z"
           style="color:#000000;font-style:normal;font-variant:normal;font-weight:normal;font-stretch:normal;font-size:medium;line-height:normal;font-family:sans-serif;font-variant-ligatures:normal;font-variant-position:normal;font-variant-caps:normal;font-variant-numeric:normal;font-variant-alternates:normal;font-variant-east-asian:normal;font-feature-settings:normal;font-variation-settings:normal;text-indent:0;text-align:start;text-decoration:none;text-decoration-line:none;text-decoration-style:solid;text-decoration-color:#000000;letter-spacing:normal;word-spacing:normal;text-transform:none;writing-mode:lr-tb;direction:ltr;text-orientation:mixed;dominant-baseline:auto;baseline-shift:baseline;text-anchor:start;white-space:normal;shape-padding:0;shape-margin:0;inline-size:0;clip-rule:nonzero;display:inline;overflow:visible;visibility:visible;isolation:auto;mix-blend-mode:normal;color-interpolation:sRGB;color-interpolation-filters:linearRGB;solid-color:#000000;solid-opacity:1;vector-effect:none;fill:#3a4d5c;fill-opacity:1;fill-rule:nonzero;stroke:none;stroke-width:2;stroke-linecap:round;stroke-linejoin:round;stroke-miterlimit:4;stroke-dasharray:none;stroke-dashoffset:0;stroke-opacity:1;color-rendering:auto;image-rendering:auto;shape-rendering:auto;text-rendering:auto;enable-background:accumulate;stop-color:#000000"
           id="path685"
           sodipodi:nodetypes="ccscsccccscssccc" />
        <path
           d="m 103.14163,254.20203 c -0.008,-0.005 -0.0172,-0.0102 -0.0262,-0.0145 -0.22982,-0.11146 -0.46998,-0.20509 -0.71695,-0.28266 0.48879,0.80074 0.77482,1.7414 0.77481,2.74765 0,2.90893 -2.36446,5.27353 -5.273372,5.27353 -0.548399,0 -1.076903,-0.0864 -1.574628,-0.24199 0.03231,0.0526 0.06272,0.10653 0.09679,0.15792 0.02622,0.0394 0.06253,0.0711 0.10516,0.0917 0.826726,0.19899 0.850652,0.30401 1.670211,0.30401 2.908919,-10e-6 5.758549,-2.14712 5.758549,-5.05604 0,-1.07104 -0.43829,-2.05317 -0.73541,-2.90242 -0.0206,-0.031 -0.0475,-0.0573 -0.079,-0.0772 z"
           style="color:#000000;font-style:normal;font-variant:normal;font-weight:normal;font-stretch:normal;font-size:medium;line-height:normal;font-family:sans-serif;font-variant-ligatures:normal;font-variant-position:normal;font-variant-caps:normal;font-variant-numeric:normal;font-variant-alternates:normal;font-variant-east-asian:normal;font-feature-settings:normal;font-variation-settings:normal;text-indent:0;text-align:start;text-decoration:none;text-decoration-line:none;text-decoration-style:solid;text-decoration-color:#000000;letter-spacing:normal;word-spacing:normal;text-transform:none;writing-mode:lr-tb;direction:ltr;text-orientation:mixed;dominant-baseline:auto;baseline-shift:baseline;text-anchor:start;white-space:normal;shape-padding:0;shape-margin:0;inline-size:0;clip-rule:nonzero;display:inline;overflow:visible;visibility:visible;isolation:auto;mix-blend-mode:normal;color-interpolation:sRGB;color-interpolation-filters:linearRGB;solid-color:#000000;solid-opacity:1;vector-effect:none;fill:#ed7425;fill-opacity:1;fill-rule:nonzero;stroke:none;stroke-width:0.529167;stroke-linecap:round;stroke-linejoin:round;stroke-miterlimit:4;stroke-dasharray:none;stroke-dashoffset:0;stroke-opacity:1;color-rendering:auto;image-rendering:auto;shape-rendering:auto;text-rendering:auto;enable-background:accumulate;stop-color:#000000"
           id="path695"
           sodipodi:nodetypes="ccccscccssccc" />
        <path
           id="path1677"
           style="color:#000000;font-style:normal;font-variant:normal;font-weight:normal;font-stretch:normal;font-size:medium;line-height:normal;font-family:sans-serif;font-variant-ligatures:normal;font-variant-position:normal;font-variant-caps:normal;font-variant-numeric:normal;font-variant-alternates:normal;font-variant-east-asian:normal;font-feature-settings:normal;font-variation-settings:normal;text-indent:0;text-align:start;text-decoration:none;text-decoration-line:none;text-decoration-style:solid;text-decoration-color:#000000;letter-spacing:normal;word-spacing:normal;text-transform:none;writing-mode:lr-tb;direction:ltr;text-orientation:mixed;dominant-baseline:auto;baseline-shift:baseline;text-anchor:start;white-space:normal;shape-padding:0;shape-margin:0;inline-size:0;clip-rule:nonzero;display:inline;overflow:visible;visibility:visible;opacity:1;isolation:auto;mix-blend-mode:normal;color-interpolation:sRGB;color-interpolation-filters:linearRGB;solid-color:#000000;solid-opacity:1;vector-effect:none;fill:#000000;fill-opacity:1;fill-rule:nonzero;stroke:none;stroke-width:0.529167;stroke-linecap:round;stroke-linejoin:round;stroke-miterlimit:4;stroke-dasharray:none;stroke-dashoffset:0;stroke-opacity:1;color-rendering:auto;image-rendering:auto;shape-rendering:auto;text-rendering:auto;enable-background:accumulate;stop-color:#000000;stop-opacity:1"
           d="m 97.582159,250.23803 c -0.0033,1.2e-4 -0.0066,2.7e-4 -0.0098,5.3e-4 -0.0085,1.2e-4 -0.01691,5.3e-4 -0.02532,0.002 -0.144984,0.0232 -0.243324,0.16007 -0.219107,0.30489 l 0.476972,2.92386 c 0.02352,0.14359 0.158576,0.24125 0.302308,0.21859 0.144745,-0.0232 0.243006,-0.15974 0.219107,-0.30438 l -0.476457,-2.92385 c -0.02159,-0.13015 -0.135792,-0.2245 -0.267684,-0.22117 z m 6.982001,0.4191 c -0.006,1.6e-4 -0.0114,5.3e-4 -0.0171,0.001 -0.082,0.009 -0.15504,0.0563 -0.1974,0.12712 l -1.50224,2.50373 c -0.0755,0.12514 -0.0353,0.28781 0.0899,0.36328 0.12514,0.0755 0.28782,0.0353 0.36328,-0.0899 l 1.50224,-2.50372 c 0.0755,-0.12515 0.0353,-0.28782 -0.0899,-0.36329 -0.0447,-0.0272 -0.0965,-0.0405 -0.14883,-0.0382 z m -3.49384,0.48938 c -0.14532,5.2e-4 -0.26299,0.11823 -0.26355,0.26355 v 1.51567 c 5.3e-4,0.14532 0.11823,0.26298 0.26355,0.26355 0.14613,5.3e-4 0.26505,-0.11743 0.26561,-0.26355 v -1.51567 c -5.2e-4,-0.14613 -0.11948,-0.26413 -0.26561,-0.26355 z m -5.802747,2.23035 c -0.067,0.003 -0.13054,0.0304 -0.177768,0.078 -0.102614,0.10321 -0.102614,0.2699 0,0.37311 l 1.070218,1.07228 c 0.103439,0.10399 0.271733,0.10399 0.375171,0 0.103646,-0.10338 0.103646,-0.27127 0,-0.37465 l -1.072284,-1.07074 c -0.05153,-0.0519 -0.122238,-0.0801 -0.195337,-0.078 z m 10.456097,3.64733 c -0.65693,-1.25907 -1.23966,-2.06516 -2.62879,-2.8453 -0.68915,-0.33029 -1.46059,-0.51676 -2.2748,-0.51676 h 7e-5 c -2.908925,0 -5.273583,2.36465 -5.273583,5.27358 0.09002,1.08087 0.387146,2.15414 0.890376,2.92798 l 5.7e-5,-1e-5 c 0.945105,1.41267 2.557433,2.34353 4.38319,2.34353 0.77028,-0.0149 1.47467,-0.16836 2.15129,-0.46302 1.83771,-0.82426 3.1223,-2.66632 3.1223,-4.80849 0,-0.0916 -0.005,-0.18199 -0.01,-0.27234 10e-4,-0.0186 5.2e-4,-0.0373 -0.002,-0.0558 -0.057,-0.59132 -0.0434,-0.8329 -0.35811,-1.58337 z m -4.90347,-2.83291 c 0.71517,0 1.39049,0.16011 1.99782,0.44287 0.46885,0.73634 0.74259,1.60861 0.74259,2.54765 0,2.62294 -2.12148,4.74389 -4.744416,4.74389 -0.712198,0 -1.385311,-0.15724 -1.991612,-0.4377 -0.47222,-0.73729 -0.748276,-1.61064 -0.748273,-2.55229 0,-2.62294 2.120956,-4.74442 4.743891,-4.74442 z m 0,0.47284 c -0.68608,0 -1.331049,0.1819 -1.886701,0.50178 -0.127034,0.0728 -0.170804,0.2349 -0.09767,0.36173 0.07277,0.12673 0.234503,0.17046 0.36122,0.0977 0.477946,-0.27514 1.030991,-0.43201 1.623151,-0.43201 0.50947,0 0.98922,0.11682 1.41801,0.32453 0.13157,0.0637 0.28984,0.009 0.35346,-0.12299 0.064,-0.1317 0.009,-0.29036 -0.12299,-0.35399 -0.49874,-0.2416 -1.0582,-0.37672 -1.64848,-0.37672 z m 2.73145,0.3671 c 0.721,0.64838 1.19263,1.24866 1.55512,2.00537 -0.32271,0.17065 -0.54416,0.5089 -0.54416,0.8971 0,0.55311 0.45012,1.00613 1.00149,1.01389 -0.004,1.8223 -1.03374,3.3975 -2.54196,4.18786 -0.11937,-0.26836 -0.38895,-0.45785 -0.6997,-0.45785 -0.41959,0 -0.76585,0.34418 -0.76585,0.76377 0,0.0585 0.008,0.11532 0.0202,0.17054 -0.24687,0.0395 -0.73264,0.0824 -0.99077,0.0824 -1.328278,0 -2.493998,-0.65699 -3.354037,-1.53496 0.427972,0.11197 1.121961,0.29609 1.584249,0.29609 0.893931,0 1.735978,-0.22531 2.474268,-0.61909 0.18664,0.22551 0.46837,0.36897 0.78186,0.36897 0.55787,0 1.01545,-0.45807 1.01545,-1.01596 0,-0.2382 -0.0841,-0.45852 -0.22273,-0.63303 0.76395,-0.91508 1.22473,-2.09131 1.22473,-3.37447 -0.0283,-1.23485 -0.53813,-2.15058 -0.53813,-2.15058 z m 3.22271,0.73826 c -0.14612,-5.8e-4 -0.26505,0.11742 -0.26561,0.26355 -5.3e-4,0.14693 0.11868,0.26619 0.26561,0.26562 0.14613,-5.9e-4 0.26412,-0.11949 0.26355,-0.26562 -5.3e-4,-0.14532 -0.11823,-0.26298 -0.26355,-0.26355 z m -8.770522,0.1018 c -0.06743,10e-4 -0.131762,0.0286 -0.179832,0.076 -0.31909,0.31909 -0.576887,0.69907 -0.755509,1.12138 -0.05727,0.1347 0.0057,0.29032 0.140559,0.34726 0.134848,0.0576 0.290838,-0.005 0.347782,-0.14056 0.151678,-0.35861 0.370821,-0.68139 0.642337,-0.95291 0.103989,-0.10344 0.103989,-0.27173 0,-0.37517 -0.05188,-0.0511 -0.122545,-0.0786 -0.195337,-0.076 z m -5.88646,0.29456 c -0.129469,6.3e-4 -0.239454,0.0949 -0.259935,0.22272 -0.02305,0.14324 0.07353,0.27832 0.216524,0.30283 l 2.923855,0.47645 c 0.144651,0.0242 0.281411,-0.0738 0.30489,-0.21859 0.02297,-0.14391 -0.07476,-0.27931 -0.21859,-0.30282 l -2.923853,-0.47646 c -0.01416,-0.003 -0.02851,-0.004 -0.04289,-0.004 z m 13.200222,1.35805 c 0.10238,0.28317 0.17409,0.58081 0.21291,0.89142 -0.24848,-0.0237 -0.43873,-0.22609 -0.43873,-0.48162 0,-0.17493 0.0903,-0.32429 0.22582,-0.4098 z m -12.034402,2.14819 c -0.146127,5.6e-4 -0.264123,0.11949 -0.263552,0.26562 5.3e-4,0.14532 0.118232,0.26299 0.263552,0.26355 h 1.515668 c 0.14532,-5.5e-4 0.262986,-0.11823 0.263552,-0.26355 5.29e-4,-0.14613 -0.117425,-0.26505 -0.263552,-0.26562 z m 13.762452,0.5571 -0.0816,0.30231 h -0.18862 c -0.14693,-5.8e-4 -0.26619,0.11868 -0.26561,0.26561 5.3e-4,0.14613 0.11949,0.26413 0.26561,0.26355 h 0.046 l -0.0481,0.17777 c -0.0378,0.14129 0.0463,0.28641 0.18759,0.32401 0.14066,0.0379 0.2855,-0.045 0.32401,-0.18552 l 0.0186,-0.0698 0.0186,0.0698 c 0.0385,0.14076 0.18371,0.22376 0.32453,0.18552 0.14112,-0.0378 0.22487,-0.18288 0.18707,-0.32401 l -0.0481,-0.17777 h 0.0465 c 0.14613,5.9e-4 0.26505,-0.11742 0.26562,-0.26355 5.3e-4,-0.14693 -0.11868,-0.26619 -0.26562,-0.26561 h -0.18862 l -0.0832,-0.31006 c -0.0146,-0.093 -0.0738,-0.20914 -0.25321,-0.20051 -0.13817,-0.01 -0.24372,0.0928 -0.26148,0.20826 z m -2.6515,0.30383 c -0.14613,-5.8e-4 -0.26505,0.11743 -0.26562,0.26355 -5.3e-4,0.14694 0.11868,0.2662 0.26562,0.26562 0.14612,-5.8e-4 0.26412,-0.11949 0.26355,-0.26562 -5.3e-4,-0.14532 -0.11823,-0.26298 -0.26355,-0.26355 z m -1.89705,0.4191 c 0.0388,0.0701 0.0615,0.15033 0.0615,0.23719 0,0.2719 -0.21439,0.48628 -0.48627,0.48628 -0.12145,0 -0.22782,-0.0474 -0.31213,-0.11989 0.26411,-0.17827 0.50968,-0.38172 0.73691,-0.60358 z m -6.945309,0.72347 c -0.04449,0.002 -0.08786,0.0144 -0.12609,0.0372 l -2.503723,1.50223 c -0.125912,0.0748 -0.16714,0.2376 -0.09198,0.36329 0.07495,0.12572 0.237736,0.16671 0.363283,0.0915 l 2.504242,-1.50378 c 0.125727,-0.075 0.166714,-0.23774 0.09147,-0.36329 -0.04589,-0.0756 -0.126566,-0.12336 -0.214974,-0.12712 -0.0074,-3.2e-4 -0.01482,-3.2e-4 -0.02222,0 z m 4.872569,0.97307 c -0.14612,-5.9e-4 -0.26505,0.11742 -0.26561,0.26355 -5.3e-4,0.14693 0.11868,0.26619 0.26561,0.26561 0.14613,-5.8e-4 0.26412,-0.11949 0.26355,-0.26561 -5.3e-4,-0.14532 -0.11823,-0.26299 -0.26355,-0.26355 z m 6.08645,0.5302 c -0.14612,-5.9e-4 -0.26504,0.11742 -0.26561,0.26355 -5.3e-4,0.14693 0.11868,0.26619 0.26561,0.26561 0.14613,-5.8e-4 0.26412,-0.11949 0.26355,-0.26561 -5.3e-4,-0.14532 -0.11823,-0.26299 -0.26355,-0.26355 z m -4.18837,0.0263 c 0.10149,0 0.18423,0.0597 0.21859,0.14676 -0.14437,0.0561 -0.29201,0.10525 -0.44287,0.14728 -0.005,-0.019 -0.0124,-0.037 -0.0124,-0.0579 0,-0.13362 0.10308,-0.23616 0.23668,-0.23616 z m 2.59157,1.06609 c -0.14568,0.001 -0.23186,0.079 -0.2589,0.2098 l -0.0816,0.30231 h -0.18862 c -0.14612,-5.8e-4 -0.26504,0.11742 -0.26561,0.26355 -5.3e-4,0.14693 0.11868,0.26619 0.26561,0.26562 h 0.046 l -0.0481,0.17776 c -0.0378,0.14129 0.0463,0.28641 0.18759,0.32402 0.14128,0.0378 0.28641,-0.0463 0.32401,-0.18759 l 0.0186,-0.0693 0.0186,0.0693 c 0.0376,0.14159 0.18308,0.22568 0.32453,0.18759 0.14112,-0.0378 0.22486,-0.18289 0.18707,-0.32402 l -0.0481,-0.17776 h 0.0465 c 0.14693,5.8e-4 0.26619,-0.11869 0.26561,-0.26562 -5.3e-4,-0.14613 -0.11949,-0.26412 -0.26561,-0.26355 h -0.18914 l -0.0832,-0.31006 c -0.0585,-0.16291 -0.14758,-0.20577 -0.25527,-0.20205 z m -5.018814,0.49402 c -0.146126,-5.8e-4 -0.265049,0.11743 -0.265617,0.26355 -5.3e-4,0.14694 0.118684,0.2662 0.265617,0.26562 0.146124,-5.8e-4 0.264124,-0.11949 0.263554,-0.26562 -5.3e-4,-0.14532 -0.11823,-0.26298 -0.263554,-0.26355 z"
           sodipodi:nodetypes="ccccccccccccccccccsccsccsccscccccsscccscccccccccssssccsccccsccscccscscscsscscscccccccccccccccccccccsccsccccccccccccccccccccscccccssccccscccccccssscsscsssscsssccsscccccsccccccccccsccccssssscccscscscscscs" />
      </g>
    </g>
  </g>
</svg>
